<?xml version='1.0' encoding='iso-8859-1'?>
<svg version="1.1" xmlns="http://www.w3.org/2000/svg" viewBox="0 0 35.984 35.984" xmlns:xlink="http://www.w3.org/1999/xlink" enable-background="new 0 0 35.984 35.984">
  <g>
    <g>
      <path d="M35.399,31.155l-9.778-9.777c-0.781-0.781-2.047-0.781-2.829,0l-2.486-2.487C21.985,16.892,23,14.315,23,11.5    C23,5.148,17.851,0,11.5,0C5.149,0,0,5.148,0,11.5S5.149,23,11.5,23c2.815,0,5.392-1.015,7.391-2.695l2.487,2.487    c-0.781,0.78-0.781,2.047,0,2.828l9.778,9.778c0.781,0.781,2.047,0.781,2.828,0l1.414-1.414    C36.179,33.203,36.179,31.937,35.399,31.155z M11.5,21C6.254,21,2,16.747,2,11.5C2,6.253,6.254,2,11.5,2S21,6.253,21,11.5    C21,16.747,16.747,21,11.5,21z M32.57,33.984l-9.778-9.778l1.415-1.414l9.778,9.778L32.57,33.984z"/>
    </g>
  </g>
</svg>
